<svg width="313" height="314" viewBox="0 0 313 314" fill="none" xmlns="http://www.w3.org/2000/svg">
<g clip-path="url(#clip0_993_388)">
<path d="M223.335 137.912C216.943 136.494 210.484 135.309 203.96 134.486C197.426 133.654 190.845 133.217 184.253 133.177C177.231 133.136 170.212 133.608 163.251 134.59C153.906 135.859 144.771 138.417 136.105 142.192C131.745 144.11 127.56 146.41 123.599 149.065C121.541 150.419 119.601 151.947 117.799 153.63C115.871 155.42 114.249 157.515 112.998 159.831C112.317 161.108 111.83 162.479 111.553 163.898C111.237 165.485 111.301 167.123 111.74 168.675C112.21 170.284 113.104 171.732 114.326 172.87C115.456 173.917 116.786 174.723 118.238 175.239C119.576 175.722 120.977 176.012 122.4 176.1C123.724 176.173 125.053 176.122 126.37 175.947C128.81 175.646 131.222 175.144 133.583 174.444C138.249 173.065 142.714 171.061 146.856 168.488C151.016 165.907 154.788 162.738 158.055 159.081C162.135 154.539 165.254 149.214 167.218 143.432C167.473 142.641 167.679 141.834 167.834 141.018C167.994 140.174 168.085 139.319 168.105 138.461C168.179 136.715 167.95 134.971 167.428 133.308C166.89 131.622 166.04 130.055 164.922 128.691C163.853 127.392 162.598 126.26 161.196 125.332C158.572 123.637 155.682 122.394 152.644 121.655C151.194 121.273 149.724 120.968 148.241 120.741C147.505 120.629 146.768 120.527 146.03 120.449C145.29 120.365 144.59 120.319 143.868 120.253C138.139 119.754 132.381 119.635 126.631 119.894C103.604 121.026 81.1803 127.912 61.3923 139.927C60.643 140.363 59.9167 140.839 59.1851 141.307C58.4571 141.781 57.7179 142.237 57.0013 142.73C55.5709 143.719 54.1284 144.69 52.7441 145.74C49.9363 147.784 47.2613 149.986 44.6698 152.215C42.6079 154.001 40.6567 155.912 38.8272 157.937C38.0971 158.767 37.4605 159.515 36.9198 160.199C36.3924 160.897 35.9508 161.52 35.5854 162.075C34.5215 163.692 34.8096 163.944 36.1818 163.023C36.5249 162.792 36.9357 162.488 37.4103 162.113C37.8802 161.735 38.424 161.297 39.0414 160.799C39.6557 160.301 40.3301 159.738 41.0645 159.108C41.811 158.493 42.6272 157.827 43.4925 157.092C48.0863 153.258 52.8841 149.677 57.8642 146.367C69.2416 138.802 81.7199 133.073 94.8413 129.389C107.896 125.675 121.447 124.101 134.97 124.728C135.897 124.781 136.828 124.835 137.763 124.889C138.695 124.971 139.63 125.052 140.567 125.134C141.505 125.202 142.437 125.339 143.372 125.44C144.309 125.548 145.247 125.647 146.13 125.789C149.58 126.264 152.939 127.241 156.102 128.691C158.436 129.811 160.408 131.387 161.526 133.352C162.08 134.347 162.435 135.442 162.57 136.576C162.639 137.169 162.657 137.766 162.626 138.362C162.608 138.964 162.535 139.563 162.405 140.151C162.273 140.77 162.101 141.38 161.892 141.977L161.154 143.909C160.874 144.543 160.6 145.181 160.311 145.811C159.992 146.429 159.696 147.058 159.36 147.667C158.014 150.116 156.421 152.42 154.605 154.543C150.938 158.811 146.524 162.369 141.583 165.037C139.108 166.373 136.53 167.503 133.874 168.417C131.255 169.331 128.553 169.981 125.809 170.356L125.055 170.442L124.677 170.483L124.334 170.507C123.882 170.54 123.429 170.546 122.977 170.528C122.11 170.496 121.252 170.349 120.424 170.093C119.676 169.866 118.978 169.501 118.364 169.018C118.091 168.805 117.848 168.556 117.639 168.28C117.437 168.024 117.273 167.739 117.152 167.435C117.023 167.132 116.937 166.81 116.899 166.481C116.851 166.126 116.845 165.766 116.88 165.409C116.972 164.587 117.193 163.785 117.533 163.03C117.913 162.18 118.379 161.37 118.923 160.613C119.489 159.818 120.113 159.064 120.789 158.36C122.222 156.894 123.785 155.563 125.459 154.383C126.311 153.768 127.189 153.172 128.089 152.587C128.984 152.01 129.889 151.45 130.805 150.906C134.499 148.749 138.35 146.878 142.325 145.313C149.465 142.512 156.898 140.55 164.475 139.465C172.099 138.374 179.799 137.969 187.484 138.254C191.337 138.384 195.183 138.653 199.025 139.06C200.944 139.269 202.86 139.495 204.77 139.786L207.638 140.208L210.498 140.691C212.407 140.996 214.302 141.399 216.204 141.753C218.097 142.164 219.997 142.534 221.882 142.986C225.664 143.833 229.419 144.815 233.169 145.823C245.12 149.099 256.361 152.454 266.659 154.64C271.393 155.649 271.543 154.26 266.394 152.082C259.071 149.089 251.299 146.149 243.419 143.548C236.946 141.399 230.142 139.621 223.373 138.02C223.362 137.983 223.351 137.95 223.335 137.912Z" fill="black"/>
<path d="M216.892 160.427C220.829 159.32 224.842 158.52 228.897 158.035C229.977 157.936 231.061 157.825 232.148 157.741C233.239 157.695 234.331 157.662 235.42 157.66C240.134 157.739 244.878 158.185 249.649 158.713L256.825 159.551C259.22 159.832 261.626 160.141 264.038 160.363L264.073 160.366C264.903 160.443 265.731 160.185 266.376 159.649C267.021 159.114 267.43 158.344 267.512 157.51C267.561 156.984 267.479 156.455 267.274 155.97C267.069 155.485 266.746 155.06 266.336 154.732L260.986 150.517C255.245 145.941 249.497 141.364 243.706 136.815C237.914 132.269 232.084 127.751 226.108 123.37C224.282 122.069 222.386 120.869 220.428 119.776C218.586 118.708 217.073 118.48 215.913 118.69C214.221 119.004 214.531 120.769 216.747 122.722C218.218 123.998 219.764 125.185 221.376 126.275C228.678 131.409 235.639 137.011 242.217 143.048C244.045 144.711 245.89 146.514 247.869 147.884C252.998 151.434 257.762 155.503 262.62 159.439L264.674 154.408C263.231 154.248 261.788 154.11 260.341 154.02C254.634 153.642 248.903 152.948 243.09 152.698C237.867 152.435 232.629 152.578 227.422 153.127C222.219 153.729 217.074 154.786 212.047 156.285C211.052 156.586 210.079 156.907 209.133 157.252C208.198 157.628 207.294 158.031 206.42 158.462C204.725 159.286 203.135 160.315 201.686 161.527C201.042 162.07 200.851 162.618 201.056 163.019C201.258 163.409 201.87 163.696 202.791 163.598C204.071 163.392 205.355 163.107 206.649 162.844C207.945 162.589 209.238 162.294 210.519 161.982C211.577 161.761 212.63 161.474 213.682 161.167L214.472 160.935L215.265 160.733C215.795 160.601 216.324 160.47 216.853 160.338L216.892 160.427Z" fill="black"/>
</g>
<defs>
<clipPath id="clip0_993_388">
<rect width="230" height="228" fill="white" transform="matrix(-0.5 0.866025 0.866025 0.5 115 0)"/>
</clipPath>
</defs>
</svg>
