<svg width="105" height="21" viewBox="0 0 105 21" fill="none" xmlns="http://www.w3.org/2000/svg">
<path d="M5.57653 16.4L5.26453 10.184L11.6005 3.2H17.7685L10.6645 11.024L7.52053 14.24L5.57653 16.4ZM0.512531 20V3.2H6.08053V20H0.512531ZM11.5525 20L6.60853 13.472L10.2805 9.584L18.1045 20H11.5525ZM18.6961 20V6.872H24.1201V20H18.6961ZM21.4081 5.816C20.4161 5.816 19.6241 5.552 19.0321 5.024C18.4401 4.496 18.1441 3.84 18.1441 3.056C18.1441 2.272 18.4401 1.616 19.0321 1.088C19.6241 0.559999 20.4161 0.295999 21.4081 0.295999C22.4001 0.295999 23.1921 0.543999 23.7841 1.04C24.3761 1.536 24.6721 2.176 24.6721 2.96C24.6721 3.792 24.3761 4.48 23.7841 5.024C23.1921 5.552 22.4001 5.816 21.4081 5.816ZM32.2842 20.24C31.1482 20.24 30.0922 19.968 29.1162 19.424C28.1562 18.864 27.3882 18.08 26.8122 17.072C26.2362 16.048 25.9482 14.832 25.9482 13.424C25.9482 12.016 26.2362 10.808 26.8122 9.8C27.3882 8.776 28.1562 7.992 29.1162 7.448C30.0922 6.904 31.1482 6.632 32.2842 6.632C33.4362 6.632 34.3802 6.88 35.1162 7.376C35.8522 7.856 36.3962 8.6 36.7482 9.608C37.1002 10.6 37.2762 11.872 37.2762 13.424C37.2762 14.992 37.1082 16.28 36.7722 17.288C36.4522 18.296 35.9242 19.04 35.1882 19.52C34.4682 20 33.5002 20.24 32.2842 20.24ZM33.5802 16.016C33.9802 16.016 34.3402 15.92 34.6602 15.728C34.9802 15.536 35.2362 15.248 35.4282 14.864C35.6202 14.464 35.7162 13.984 35.7162 13.424C35.7162 12.848 35.6202 12.376 35.4282 12.008C35.2362 11.624 34.9802 11.336 34.6602 11.144C34.3402 10.952 33.9802 10.856 33.5802 10.856C33.1802 10.856 32.8202 10.952 32.5002 11.144C32.1802 11.336 31.9242 11.624 31.7322 12.008C31.5402 12.376 31.4442 12.848 31.4442 13.424C31.4442 13.984 31.5402 14.464 31.7322 14.864C31.9242 15.248 32.1802 15.536 32.5002 15.728C32.8202 15.92 33.1802 16.016 33.5802 16.016ZM35.8842 20V18.224L35.8602 13.424L35.6202 8.624V2.192H41.0442V20H35.8842Z" fill="#202020"/>
<path d="M52.3021 20.384C50.9581 20.384 49.7101 20.176 48.5581 19.76C47.4221 19.328 46.4301 18.72 45.5821 17.936C44.7501 17.152 44.1021 16.224 43.6381 15.152C43.1741 14.08 42.9421 12.896 42.9421 11.6C42.9421 10.304 43.1741 9.12 43.6381 8.048C44.1021 6.976 44.7501 6.048 45.5821 5.264C46.4301 4.48 47.4221 3.88 48.5581 3.464C49.7101 3.032 50.9581 2.816 52.3021 2.816C53.9501 2.816 55.4061 3.104 56.6701 3.68C57.9501 4.256 59.0061 5.088 59.8381 6.176L56.2621 9.368C55.7661 8.744 55.2141 8.264 54.6061 7.928C54.0141 7.576 53.3421 7.4 52.5901 7.4C51.9981 7.4 51.4621 7.496 50.9821 7.688C50.5021 7.88 50.0861 8.16 49.7341 8.528C49.3981 8.896 49.1341 9.344 48.9421 9.872C48.7501 10.384 48.6541 10.96 48.6541 11.6C48.6541 12.24 48.7501 12.824 48.9421 13.352C49.1341 13.864 49.3981 14.304 49.7341 14.672C50.0861 15.04 50.5021 15.32 50.9821 15.512C51.4621 15.704 51.9981 15.8 52.5901 15.8C53.3421 15.8 54.0141 15.632 54.6061 15.296C55.2141 14.944 55.7661 14.456 56.2621 13.832L59.8381 17.024C59.0061 18.096 57.9501 18.928 56.6701 19.52C55.4061 20.096 53.9501 20.384 52.3021 20.384ZM69.2495 20V17.672L68.8655 17.048V12.632C68.8655 11.992 68.6655 11.504 68.2655 11.168C67.8815 10.832 67.2495 10.664 66.3695 10.664C65.7775 10.664 65.1775 10.76 64.5695 10.952C63.9615 11.128 63.4415 11.376 63.0095 11.696L61.2815 8.12C62.0495 7.64 62.9695 7.272 64.0415 7.016C65.1135 6.76 66.1615 6.632 67.1855 6.632C69.4415 6.632 71.1855 7.136 72.4175 8.144C73.6655 9.152 74.2895 10.752 74.2895 12.944V20H69.2495ZM65.5295 20.24C64.4575 20.24 63.5615 20.056 62.8415 19.688C62.1215 19.32 61.5775 18.832 61.2095 18.224C60.8415 17.6 60.6575 16.912 60.6575 16.16C60.6575 15.312 60.8735 14.592 61.3055 14C61.7375 13.408 62.3935 12.96 63.2735 12.656C64.1695 12.352 65.2975 12.2 66.6575 12.2H69.3935V14.816H67.5215C66.9455 14.816 66.5215 14.912 66.2495 15.104C65.9935 15.28 65.8655 15.552 65.8655 15.92C65.8655 16.224 65.9775 16.48 66.2015 16.688C66.4415 16.88 66.7615 16.976 67.1615 16.976C67.5295 16.976 67.8655 16.88 68.1695 16.688C68.4895 16.48 68.7215 16.16 68.8655 15.728L69.5615 17.336C69.3535 18.312 68.9135 19.04 68.2415 19.52C67.5695 20 66.6655 20.24 65.5295 20.24ZM81.7696 20.24C80.6496 20.24 79.5456 20.12 78.4576 19.88C77.3696 19.64 76.4896 19.328 75.8176 18.944L77.3056 15.368C77.9296 15.736 78.6496 16.024 79.4656 16.232C80.2976 16.44 81.1056 16.544 81.8896 16.544C82.5456 16.544 82.9856 16.488 83.2096 16.376C83.4496 16.264 83.5696 16.112 83.5696 15.92C83.5696 15.728 83.4336 15.592 83.1616 15.512C82.8896 15.416 82.5296 15.344 82.0816 15.296C81.6336 15.248 81.1376 15.192 80.5936 15.128C80.0656 15.048 79.5296 14.936 78.9856 14.792C78.4416 14.648 77.9456 14.432 77.4976 14.144C77.0496 13.856 76.6896 13.472 76.4176 12.992C76.1456 12.496 76.0096 11.872 76.0096 11.12C76.0096 10.288 76.2576 9.536 76.7536 8.864C77.2656 8.192 78.0176 7.656 79.0096 7.256C80.0176 6.84 81.2576 6.632 82.7296 6.632C83.6896 6.632 84.6496 6.72 85.6096 6.896C86.5696 7.072 87.3936 7.344 88.0816 7.712L86.5936 11.288C85.9216 10.92 85.2576 10.672 84.6016 10.544C83.9616 10.4 83.3616 10.328 82.8016 10.328C82.1136 10.328 81.6416 10.392 81.3856 10.52C81.1456 10.648 81.0256 10.792 81.0256 10.952C81.0256 11.144 81.1616 11.288 81.4336 11.384C81.7056 11.48 82.0656 11.552 82.5136 11.6C82.9616 11.648 83.4496 11.712 83.9776 11.792C84.5216 11.856 85.0576 11.968 85.5856 12.128C86.1296 12.272 86.6256 12.488 87.0736 12.776C87.5216 13.064 87.8816 13.456 88.1536 13.952C88.4256 14.432 88.5616 15.048 88.5616 15.8C88.5616 16.584 88.3136 17.32 87.8176 18.008C87.3216 18.68 86.5696 19.224 85.5616 19.64C84.5536 20.04 83.2896 20.24 81.7696 20.24ZM99.3239 6.632C100.332 6.632 101.244 6.84 102.06 7.256C102.876 7.656 103.516 8.288 103.98 9.152C104.46 10.016 104.7 11.136 104.7 12.512V20H99.2759V13.448C99.2759 12.632 99.1319 12.056 98.8439 11.72C98.5559 11.368 98.1639 11.192 97.6679 11.192C97.2999 11.192 96.9559 11.28 96.6359 11.456C96.3319 11.616 96.0839 11.888 95.8919 12.272C95.7159 12.656 95.6279 13.176 95.6279 13.832V20H90.2039V2.192H95.6279V10.712L94.3319 9.608C94.8439 8.616 95.5319 7.872 96.3959 7.376C97.2759 6.88 98.2519 6.632 99.3239 6.632Z" fill="#473DC1"/>
</svg>
