<svg width="57" height="57" viewBox="0 0 57 57" fill="none" xmlns="http://www.w3.org/2000/svg">
<g id="Group 3466084">
<circle id="Ellipse 29" cx="28.1754" cy="28.1754" r="22.5137" transform="rotate(-17.243 28.1754 28.1754)" fill="#473DC1"/>
<g id="Group 3466078">
<g id="Group 3466076">
<path id="Vector 42" d="M15.2276 29.1824C16.1524 28.8954 16.9725 28.4559 17.936 28.3386C18.6984 28.2459 19.457 27.8131 20.171 27.5915" stroke="white" stroke-width="0.809398" stroke-linecap="round"/>
<path id="Vector 43" d="M20.3115 29.8699C20.1339 29.2977 19.8267 28.7769 19.9926 28.1125C20.0902 27.7215 20.1237 27.3523 20.3183 26.9825C20.5353 26.5702 20.8098 26.1229 20.9857 25.6961C21.2368 25.087 21.7078 24.5715 21.9582 23.9532C22.0321 23.7707 22.1656 23.6277 22.2546 23.4584C22.3448 23.287 22.3685 23.0869 22.4579 22.9171C22.8471 22.1775 22.8527 21.3156 22.8925 20.4853C22.9462 19.3627 22.3691 18.5012 21.9716 17.5082C21.6722 16.7602 21.1543 16.1586 20.8142 15.4415C20.693 15.1862 20.5074 14.8576 20.5007 14.5634C20.4926 14.2069 20.6263 13.8873 20.6255 13.5461C20.6247 13.2262 20.9281 13.0311 21.0642 12.7901C21.2506 12.4598 21.4995 12.2249 21.8028 12.0071C22.3611 11.6063 23.029 11.5052 23.6743 11.3255C24.0367 11.2246 24.3043 11.4329 24.6549 11.4743C24.9173 11.5052 25.1945 11.6269 25.4476 11.7065C25.7675 11.8071 26.1274 11.9629 26.3973 12.1511C26.6895 12.3548 26.8653 12.7248 27.1658 12.9038C27.3399 13.0074 27.4464 13.1962 27.5845 13.3402C27.7661 13.5296 27.9431 13.6592 28.047 13.9077C28.2831 14.4727 28.3921 14.9967 28.5146 15.597C28.6268 16.1466 28.5826 16.6956 28.64 17.2477C28.699 17.816 28.6671 18.4707 28.8361 19.015C28.9509 19.3849 29.0404 19.7639 29.2673 20.0799C29.471 20.3637 29.7569 20.5597 29.9682 20.8378C30.1459 21.0717 30.3815 21.1671 30.6505 21.2113C30.9902 21.267 31.1617 21.2866 31.3559 21.5681C31.5631 21.8685 31.8277 21.9124 32.1985 21.8195C32.2872 21.7973 32.8533 21.7947 32.692 21.9495" stroke="white" stroke-width="0.809398" stroke-linecap="round"/>
<path id="Vector 44" d="M14.9306 29.5013C14.8209 29.6829 14.6713 29.8684 14.6278 30.0767C14.5356 30.5175 14.6114 31.0061 14.5405 31.4379C14.5017 31.6745 14.65 31.9609 14.65 32.2062C14.65 32.4955 14.7515 32.7749 14.7767 33.0605C14.8625 34.0325 15.271 35.0259 15.7102 35.8858C15.8898 36.2371 16.0672 36.5988 16.2374 36.9556C16.9485 38.4463 18.2124 39.6771 19.4004 40.8005C19.7083 41.0916 20.0595 41.3622 20.3927 41.6253C20.6115 41.7981 20.89 41.8882 21.0902 42.0884C21.194 42.1922 21.7974 42.5015 21.7947 42.4928" stroke="white" stroke-width="0.809398" stroke-linecap="round"/>
<path id="Vector 45" d="M21.8747 42.751C21.6931 42.8074 22.1758 42.5187 22.3323 42.4108C22.4944 42.2989 22.6431 42.1688 22.8035 42.0537C23.1053 41.837 23.4954 41.6679 23.7513 41.4071C24.0232 41.13 24.4835 41.025 24.7391 40.7576C24.8531 40.6382 25.4 40.2421 25.4124 40.4636" stroke="white" stroke-width="0.809398" stroke-linecap="round"/>
<path id="Vector 46" d="M23.3477 38.5558C23.4544 38.8998 23.9293 39.0347 24.2029 39.2029C24.5426 39.4116 24.7945 39.6621 25.195 39.7634C25.5472 39.8524 25.8962 39.9022 26.2494 39.9773C26.8637 40.108 27.4714 40.2115 28.0887 40.3378C28.7409 40.4713 29.3354 40.5055 29.952 40.7758C30.9426 41.21 32.0359 41.1315 33.0822 41.1289C33.4865 41.1279 33.9417 40.988 34.329 40.8678C34.4702 40.824 35.1053 40.5395 35.2118 40.6504" stroke="white" stroke-width="0.809398" stroke-linecap="round"/>
<path id="Vector 47" d="M34.21 21.3651C33.9229 21.2027 33.765 21.3428 33.4768 21.4762C33.3115 21.5528 33.121 21.5597 32.97 21.6681C32.8151 21.7794 32.6664 21.8776 32.4935 21.9576C32.1028 22.1384 31.7388 22.494 31.3739 22.7299C31.0202 22.9586 30.7187 23.2001 30.4293 23.4982C30.0394 23.8998 29.4146 24.4333 29.5696 25.0268C29.7656 25.7771 29.6562 26.6542 30.1245 27.3214C30.812 28.3011 32.5793 28.1294 33.5575 27.7378C34.2233 27.4713 34.8576 27.0543 35.5389 26.8428C35.9657 26.7104 36.3326 26.4832 36.7524 26.3529C37.0449 26.2621 37.4482 26.2042 37.7001 26.0304C37.9502 25.8579 38.2109 25.787 38.4997 25.6973C38.8181 25.5985 39.0948 25.4118 39.409 25.3018C39.6446 25.2194 39.8306 25.0011 40.0727 24.9259C40.2871 24.8594 40.4225 24.7058 40.5804 24.5544C41.0076 24.1446 41.1512 23.7218 41.3737 23.1974C41.5199 22.8529 41.3814 22.5731 41.2768 22.2364C41.1565 21.8488 41.0836 21.4815 40.6961 21.2776C40.3985 21.121 40.1956 20.9748 39.8481 20.9178C39.6015 20.8773 39.3231 20.9325 39.0849 20.8715C38.7832 20.7942 38.4388 20.8263 38.1289 20.7718C37.6738 20.6917 37.1986 20.6607 36.7368 20.7067C35.7855 20.8014 34.7472 21.2144 33.9001 21.6438C33.6266 21.7824 33.3698 21.8899 33.1305 22.084C32.8616 22.3021 32.6444 22.1745 32.7297 22.6174" stroke="white" stroke-width="0.809398" stroke-linecap="round"/>
<path id="Vector 48" d="M32.5126 28.1221C31.8232 28.3361 31.3065 28.6661 31.1792 29.4421C31.1048 29.8953 31.1915 30.4349 31.3254 30.8662C31.4649 31.3156 31.5793 31.9005 31.9694 32.2112C32.8388 32.9038 33.6646 32.4654 34.6183 32.1694C35.0888 32.0233 35.5073 31.7802 35.9782 31.634C36.4747 31.4799 36.9583 31.2732 37.4632 31.1165C37.9336 30.9705 38.3756 30.6144 38.8786 30.608C39.2199 30.6036 39.6583 30.3785 39.9813 30.2783C40.4725 30.1258 40.8687 29.7763 41.3608 29.6236C41.6506 29.5336 41.9216 29.471 42.1633 29.2895C42.5897 28.9694 43.0271 28.5011 42.9721 27.9215C42.9251 27.4265 42.9138 26.7283 42.5765 26.3326C41.8896 25.5266 40.7485 24.3682 39.7877 25.4676" stroke="white" stroke-width="0.809398" stroke-linecap="round"/>
<path id="Vector 49" d="M33.5232 33.0189C33.1754 32.8222 33.0656 33.0028 33.0822 33.3823C33.1105 34.0318 33.2453 34.6784 33.4377 35.2983C33.5854 35.7742 33.8122 36.2062 34.3025 36.4018C34.8036 36.6017 35.3499 36.3705 35.8577 36.3029C36.1224 36.2677 36.4038 36.1752 36.6656 36.1183C36.8989 36.0675 37.141 36.0305 37.3685 35.9599C37.7894 35.8292 38.2103 35.6986 38.6313 35.5679C39.0586 35.4353 39.4971 35.4125 39.9204 35.2811C40.2036 35.1932 40.4867 35.1053 40.7699 35.0174C41.3455 34.8388 41.9659 34.6771 42.4444 34.2995C43.1045 33.7785 43.2873 33.1996 43.2282 32.354C43.1729 31.5644 42.699 30.8461 41.9974 30.4768C41.7554 30.3495 41.4136 30.3798 41.1989 30.2055C40.9565 30.0087 40.684 30.0114 40.6112 30.3092" stroke="white" stroke-width="0.809398" stroke-linecap="round"/>
<path id="Vector 50" d="M35.0225 36.5746C34.8168 36.4663 34.5538 36.4544 34.4944 36.7385C34.4645 36.8812 34.4191 37.0404 34.4195 37.1865C34.42 37.4017 34.5259 37.5902 34.5255 37.8018C34.5247 38.2029 34.7713 38.8789 34.9673 39.2253C35.1288 39.5106 35.432 39.923 35.7191 40.0964C35.9001 40.2057 36.1763 40.3991 36.395 40.4089C36.7902 40.4265 37.1614 40.3372 37.5516 40.3236C38.0468 40.3065 38.4693 40.2622 38.9408 40.1159C39.1256 40.0585 39.2792 39.9794 39.4538 39.9032C39.6585 39.8138 39.91 39.8049 40.0935 39.6732C40.3946 39.457 40.9167 39.2194 41.2743 39.1084C41.5729 39.0158 41.7891 38.7949 42.0786 38.6889C42.6986 38.4619 42.7874 37.5523 42.9514 37.0304C43.0296 36.7818 42.9453 36.2981 42.7722 36.098C42.5391 35.8287 42.1412 35.7914 41.8454 35.6463C41.6053 35.5286 41.3119 35.4712 41.0722 35.3451C40.9802 35.2966 40.9113 35.2275 40.8094 35.1875C40.7017 35.1453 40.5835 35.2339 40.6944 35.3239" stroke="white" stroke-width="0.809398" stroke-linecap="round"/>
</g>
<path id="Vector 67" d="M14.3742 31.646C14.4792 31.1993 14.9222 30.6799 15.1649 30.2993C15.4003 29.9301 15.58 29.4771 15.8721 29.1504" stroke="white" stroke-width="0.404699" stroke-linecap="round"/>
<path id="Vector 68" d="M15.0008 32.4183C15.1926 32.2001 15.2512 31.8654 15.3892 31.6101C15.6311 31.1627 15.9033 30.722 16.1753 30.2917C16.4215 29.9022 16.7101 29.4581 16.8725 29.0331C16.9019 28.9561 17.0746 28.6835 17.005 28.7502" stroke="white" stroke-width="0.16188" stroke-linecap="round"/>
<path id="Vector 69" d="M15.0816 33.4568C15.349 32.9487 15.5629 32.4181 15.7788 31.8866C16.0716 31.1657 16.6165 30.6 16.9495 29.9036C17.0061 29.7852 17.5242 28.5436 17.6363 28.6026" stroke="white" stroke-width="0.16188" stroke-linecap="round"/>
<path id="Vector 70" d="M15.2943 34.4545C15.2734 34.346 15.3871 34.2034 15.4424 34.1184C15.6624 33.7806 15.7908 33.414 15.9315 33.0373C16.3021 32.0452 16.9073 31.1086 17.3709 30.1543C17.5188 29.8498 17.5997 29.5131 17.7386 29.2101C17.7761 29.1284 17.9453 28.7639 17.8946 28.8126" stroke="white" stroke-width="0.16188" stroke-linecap="round"/>
<path id="Vector 71" d="M15.4529 35.2754C15.5193 34.9577 15.7914 34.7117 15.9091 34.4086C16.0595 34.0213 16.2573 33.6506 16.4261 33.2704C16.6212 32.831 16.889 32.43 17.0808 31.9874C17.2268 31.6505 17.3111 31.2881 17.4698 30.9561C17.5755 30.7352 18.5109 28.4722 18.5732 28.505" stroke="white" stroke-width="0.16188" stroke-linecap="round"/>
<path id="Vector 72" d="M15.8315 36.0283C15.8098 36.0321 16.1227 35.4348 16.1756 35.3198C16.3762 34.8838 16.4828 34.3538 16.7332 33.9488C17.2068 33.1826 17.5505 32.3413 17.9695 31.5451C18.1245 31.2507 19.28 28.5082 19.3031 28.5204" stroke="white" stroke-width="0.16188" stroke-linecap="round"/>
<path id="Vector 73" d="M16.3317 36.55C16.5061 36.4738 16.6575 36.0112 16.7179 35.8472C16.9049 35.3399 17.131 34.8886 17.3615 34.3984C17.6784 33.7245 17.8819 33.0034 18.2711 32.3702C18.4155 32.1351 18.5057 31.8479 18.6013 31.5908C18.6873 31.3596 18.8436 31.1608 18.9412 30.9293C19.0296 30.7196 19.1493 30.494 19.2771 30.3066C19.4612 30.0369 19.538 29.5582 19.6238 29.2428" stroke="white" stroke-width="0.16188" stroke-linecap="round"/>
<path id="Vector 74" d="M16.9415 37.4245C17.0808 37.3637 17.2119 36.8364 17.2724 36.6906C17.4708 36.2133 17.7018 35.7615 17.8723 35.2742C18.0078 34.8869 18.2541 34.5477 18.3968 34.1686C18.5179 33.8469 18.6774 33.5302 18.8215 33.2176C19.0585 32.7032 19.3094 32.159 19.5045 31.6276C19.5754 31.4344 20.1379 30.1644 19.9995 30.1417" stroke="white" stroke-width="0.16188" stroke-linecap="round"/>
<path id="Vector 75" d="M17.4462 38.4281C17.4298 38.3358 17.528 38.268 17.5679 38.1969C17.6934 37.9733 17.7753 37.7254 17.9421 37.5247C18.1623 37.2599 18.249 36.9409 18.3915 36.6359C18.5186 36.3635 18.6569 36.1116 18.7435 35.8229C18.9233 35.2234 19.0869 34.5686 19.3365 33.9949C19.6161 33.3526 19.9169 32.7315 20.1925 32.0881C20.6884 30.9302 21.1236 29.7369 21.6896 28.6123C22.2245 27.5495 22.5338 26.3629 23.0385 25.282C23.2704 24.7854 23.5361 24.3286 23.7288 23.8106C24.0443 22.9625 24.4656 22.1342 24.8502 21.3137C25.0723 20.8399 25.1872 20.3292 25.3709 19.8413C25.5309 19.4165 25.7756 19.0254 25.8986 18.5816C26.023 18.1327 26.3399 17.7317 26.4522 17.2844C26.5605 16.8526 26.7398 16.4493 26.8582 16.0221C26.967 15.6295 27.2119 15.2943 27.3188 14.9014C27.3875 14.649 27.5568 14.4249 27.6132 14.1708C27.6242 14.1208 27.6828 13.93 27.636 14.0885" stroke="white" stroke-width="0.16188" stroke-linecap="round"/>
<path id="Vector 76" d="M20.4691 29.3189C20.3163 29.6558 20.5747 29.1183 20.6212 29.0299C20.8569 28.582 21.1196 28.1169 21.304 27.6469C21.572 26.9635 21.8164 26.2937 22.0186 25.5878C22.2434 24.8036 22.6839 24.1234 22.9158 23.3378C23.0969 22.7243 23.3938 22.0474 23.7537 21.5198C23.8476 21.3822 23.8484 21.201 23.9079 21.0475C23.9784 20.8659 24.098 20.7087 24.1688 20.5207C24.3126 20.1388 24.3973 19.7363 24.542 19.3519C24.6739 19.0017 24.8361 18.6062 25.009 18.2776C25.1983 17.9179 25.3142 17.5305 25.4978 17.1696C25.7333 16.7069 25.9848 16.2539 26.1326 15.7531C26.2448 15.3733 26.4512 14.924 26.6794 14.5896C26.8237 14.378 26.8807 14.1213 26.9972 13.9C27.0283 13.8409 27.1044 13.4664 27.1493 13.6111" stroke="white" stroke-width="0.16188" stroke-linecap="round"/>
<path id="Vector 77" d="M23.2887 20.176C23.1612 20.1988 23.4849 19.554 23.5172 19.4927C23.7295 19.0892 23.8903 18.6746 24.1007 18.2748C24.2622 17.968 24.3493 17.5358 24.4476 17.2028C24.6191 16.6218 24.9405 16.0874 25.185 15.5369C25.4741 14.8857 25.6734 14.196 25.9671 13.5482C26.0614 13.3404 26.1809 13.1381 26.2874 12.9358C26.3484 12.8199 26.3509 12.6938 26.3467 12.8932" stroke="white" stroke-width="0.16188" stroke-linecap="round"/>
<path id="Vector 78" d="M23.0043 19.1039C23.0856 18.9245 23.0807 18.7078 23.1649 18.5222C23.3417 18.1321 23.5832 17.7712 23.7205 17.3613C23.9508 16.6732 24.2654 16.0043 24.4321 15.2924C24.4824 15.0779 24.4908 14.849 24.5803 14.6447C24.6996 14.3727 24.856 14.1131 24.9944 13.8501C25.1215 13.6087 25.2217 13.2898 25.2955 13.0287C25.3618 12.7941 25.466 12.5776 25.5064 12.332C25.5513 12.0583 25.5766 12.1712 25.5239 12.4233" stroke="white" stroke-width="0.16188" stroke-linecap="round"/>
<path id="Vector 79" d="M22.5295 18.0425C22.5843 17.5171 23.0051 17.027 23.197 16.5325C23.4368 15.9147 23.6235 15.2846 23.8494 14.662C24.0786 14.0303 24.3637 13.4251 24.6279 12.8087C24.7388 12.5501 24.8471 12.2624 24.9047 11.9869C24.9206 11.9108 25.0034 11.5037 24.9822 11.7694" stroke="white" stroke-width="0.16188" stroke-linecap="round"/>
<path id="Vector 80" d="M22.1126 17.0115C22.3283 16.4473 22.5469 15.8919 22.7611 15.3276C22.8812 15.0111 23.0342 14.6988 23.1315 14.3746C23.1991 14.1491 23.2265 13.9068 23.3161 13.6887C23.5096 13.218 23.6441 12.7144 23.8766 12.2577C23.9496 12.1142 24.0092 11.8809 24.1092 11.7611C24.1834 11.6722 24.1431 11.8091 24.1472 11.8836" stroke="white" stroke-width="0.16188" stroke-linecap="round"/>
<path id="Vector 81" d="M21.456 16.2967C21.4398 15.8292 21.7965 15.3724 22.0205 14.9826C22.2043 14.6626 22.3942 14.3578 22.5372 14.0164C22.6733 13.6913 22.8944 13.3018 22.9423 12.9505C22.9769 12.6973 23.0498 12.4926 23.153 12.262C23.2263 12.0981 23.354 11.9626 23.4167 11.796C23.4901 11.6009 23.5678 11.4868 23.4921 11.7968" stroke="white" stroke-width="0.16188" stroke-linecap="round"/>
<path id="Vector 82" d="M20.9616 15.4833C20.9364 15.3527 21.0662 15.1235 21.1128 15.0013C21.3048 14.497 21.6438 14.0469 21.8939 13.5716C22.0907 13.1976 22.2723 12.8176 22.4177 12.4205C22.449 12.3349 22.6206 11.7936 22.6708 11.9552" stroke="white" stroke-width="0.16188" stroke-linecap="round"/>
<path id="Vector 83" d="M17.971 39.1838C17.9729 39.1899 18.0504 38.9308 18.072 38.8516C18.1364 38.6152 18.3013 38.4159 18.415 38.1999C18.6515 37.7505 18.8709 37.2174 19.02 36.7308C19.3242 35.7385 19.4903 34.6991 20.0787 33.8156C20.3122 33.4649 20.3699 33.0598 20.505 32.6706C20.7478 31.9709 20.9427 31.2467 21.3589 30.6274C21.5884 30.286 21.7046 29.8273 21.8928 29.4571C21.9948 29.2566 22.0707 29.0213 22.1255 28.8047C22.1864 28.5636 22.341 28.3607 22.409 28.1258C22.5378 27.6807 22.8146 27.2905 22.9966 26.869C23.0953 26.6406 23.2434 26.4422 23.3334 26.2057C23.4376 25.9321 23.5367 25.6505 23.6492 25.3798C23.8843 24.8138 24.0649 24.2474 24.3631 23.7077C24.7805 22.9525 25.172 22.1139 25.4776 21.3097C25.9028 20.1906 26.4627 19.081 27.0074 18.0172C27.2929 17.4596 27.4541 16.8361 27.7365 16.2813C27.8257 16.106 27.919 15.9345 28.0102 15.7612C28.0977 15.5949 28.1101 15.5714 28.0102 15.7612" stroke="white" stroke-width="0.16188" stroke-linecap="round"/>
<path id="Vector 84" d="M18.4241 39.8652C18.3929 39.703 18.7309 39.3523 18.8027 39.2158C19.1309 38.5922 19.4096 37.9093 19.6293 37.2402C19.8145 36.6761 20.0349 36.1735 20.3082 35.6542C20.5879 35.1227 20.7889 34.5534 21.0578 34.0194C21.57 33.0026 22.1196 31.928 22.4257 30.8282C22.5938 30.2244 22.8491 29.6253 23.0924 29.0473C23.228 28.7253 23.3357 28.3907 23.4408 28.0581C23.56 27.6809 23.7672 27.3438 23.8967 26.9738C24.0899 26.4215 24.271 25.8659 24.4732 25.3175C24.7481 24.5717 25.1934 23.8818 25.5218 23.1575C25.9137 22.2931 26.3574 21.4958 26.88 20.7053C27.2868 20.09 27.5184 19.3521 27.858 18.7068C27.9942 18.4479 28.0604 18.1414 28.2181 17.894C28.2982 17.7684 28.3751 17.623 28.4655 17.5056C28.554 17.3908 28.5373 17.3041 28.588 17.4676" stroke="white" stroke-width="0.16188" stroke-linecap="round"/>
<path id="Vector 85" d="M19.0816 40.5797C19.1151 40.0734 19.5779 39.5191 19.7704 39.0604C20.0899 38.2994 20.3437 37.5136 20.6236 36.7381C20.911 35.9422 21.316 35.1838 21.5837 34.3879C21.8831 33.4982 22.4302 32.7042 22.6756 31.7874C22.8731 31.0499 23.2733 30.3713 23.6245 29.704C23.834 29.306 23.9816 28.7981 24.1003 28.3637C24.3671 27.3873 24.9256 26.455 25.4215 25.5845C25.6848 25.1222 25.9421 24.6167 26.1601 24.1304C26.3797 23.6405 26.6737 23.1871 26.9046 22.704C27.0984 22.2987 27.297 21.9018 27.4695 21.4865C27.633 21.0932 27.7373 20.6974 27.9369 20.3181C28.1018 20.0048 28.2459 19.6971 28.466 19.4179C28.5264 19.3412 28.5462 19.219 28.607 19.1539C28.6925 19.0622 28.6523 18.8918 28.7452 19.0626" stroke="white" stroke-width="0.16188" stroke-linecap="round"/>
<path id="Vector 86" d="M19.9983 40.7303C19.9834 40.6975 19.8774 40.7853 19.8923 40.7525C19.955 40.6142 20.0226 40.4768 20.0924 40.3412C20.2138 40.105 20.2571 39.867 20.3411 39.6193C20.4541 39.2861 20.6605 38.9754 20.8042 38.6537C20.9179 38.399 21.0952 38.1807 21.2072 37.9269C21.4264 37.4302 21.5756 36.8871 21.7394 36.3703C21.8768 35.9368 22.0492 35.5137 22.1817 35.078C22.5357 33.9141 22.9796 32.8121 23.4386 31.6849C23.6371 31.1975 23.8569 30.7234 24.0401 30.2304C24.2282 29.7241 24.4718 29.2477 24.6634 28.7423C24.9519 27.9811 25.3259 27.2711 25.6755 26.5425C25.8502 26.1785 26.0717 25.8248 26.2602 25.4666C26.4187 25.1655 26.514 24.8411 26.6457 24.5277C26.7677 24.2373 26.9465 23.9825 27.0639 23.6942C27.4013 22.8655 27.9146 22.0766 28.1799 21.2231C28.2604 20.9639 28.3846 20.729 28.5108 20.4892C28.5816 20.3545 28.6611 20.2213 28.7229 20.0822C28.7671 19.9826 28.8164 19.7847 28.7982 20.0132" stroke="white" stroke-width="0.16188" stroke-linecap="round"/>
<path id="Vector 87" d="M20.4378 41.3675C20.4051 41.3728 20.5761 40.7487 20.5938 40.6933C20.7552 40.1891 20.9667 39.6795 21.2065 39.2057C21.7387 38.1545 22.1713 36.9783 22.5469 35.8565C22.621 35.6351 22.7418 35.4271 22.8297 35.21C22.9236 34.9782 22.9601 34.7362 23.0456 34.5037C23.2037 34.0743 23.4013 33.6562 23.5687 33.2293C23.7362 32.8023 23.8359 32.3297 24.0591 31.9275C24.2946 31.5032 24.4921 31.0103 24.6703 30.556C24.8188 30.1773 25.0481 29.8361 25.2019 29.4562C25.3666 29.0496 25.5466 28.6454 25.751 28.257C26.4963 26.8409 27.1402 25.3759 27.8852 23.9604C28.114 23.5256 28.2867 23.0723 28.4947 22.6269C28.6846 22.2202 28.7716 21.7546 29.0246 21.3746C29.1226 21.2275 29.2255 21.0629 29.307 20.9082C29.3855 20.7591 29.4 20.5332 29.408 20.8876" stroke="white" stroke-width="0.16188" stroke-linecap="round"/>
<path id="Vector 88" d="M21.0732 41.7022C20.9343 41.7453 21.0542 41.5798 21.0782 41.5018C21.1909 41.1351 21.3233 40.7661 21.4023 40.3913C21.4611 40.1123 21.6773 39.8367 21.7869 39.5708C21.8955 39.3075 22.0477 39.0165 22.115 38.7411C22.2085 38.3582 22.4037 37.9985 22.4873 37.6129C22.5853 37.161 22.7886 36.633 22.9983 36.2214C23.3439 35.5429 23.6381 34.8711 23.8795 34.1536C24.2314 33.1076 24.8452 32.1721 25.1993 31.1277C25.5959 29.9581 26.254 28.9024 26.7135 27.7676C27.0967 26.8212 27.5505 25.9136 28.0157 25.005C28.378 24.2975 28.651 23.5079 29.0687 22.8329C29.3115 22.4404 29.488 22.0451 29.6804 21.6277C29.7728 21.4272 29.8321 21.2154 29.9309 21.0154C29.9993 20.8769 29.9733 21.0121 29.9582 21.1036" stroke="white" stroke-width="0.16188" stroke-linecap="round"/>
<path id="Vector 89" d="M21.9067 42.3621C21.8917 42.3139 21.8426 42.2403 21.801 42.2122C21.6816 42.1314 21.7762 41.9321 21.8093 41.8148C21.9125 41.4497 22.0615 41.0874 22.1841 40.7288C22.3945 40.1133 22.6566 39.5234 22.859 38.9051C23.0387 38.3558 23.2212 37.7987 23.4457 37.2644C23.6947 36.6716 23.8593 36.0426 24.1002 35.4443C24.3431 34.8409 24.5087 34.2099 24.7373 33.6026C24.8775 33.2303 25.0108 32.8389 25.2324 32.5062C25.4483 32.1819 25.5286 31.8223 25.6831 31.4745C26.0466 30.6559 26.3921 29.8276 26.7278 28.9987C26.8619 28.6675 27.0952 28.3788 27.219 28.0458C27.2918 27.8501 27.4292 27.6945 27.4949 27.4982C27.6575 27.0125 27.8995 26.5992 28.151 26.1503C28.5342 25.4665 28.9674 24.7569 29.1608 23.9862C29.2798 23.5118 29.6564 23.0627 29.8779 22.6274C29.9485 22.4888 30.2619 21.5217 30.3431 21.5644" stroke="white" stroke-width="0.16188" stroke-linecap="round"/>
<path id="Vector 90" d="M22.591 41.763C22.3972 41.7976 22.9467 40.4206 23.0185 40.2497C23.2919 39.5988 23.4111 38.9144 23.7024 38.2646C24.1116 37.3519 24.4577 36.4239 24.7739 35.477C24.9542 34.9368 25.25 34.4464 25.4209 33.9009C25.5377 33.5281 25.6724 33.0045 25.9023 32.6824C26.0396 32.49 26.1468 32.1548 26.2327 31.9298C26.4328 31.4063 26.6842 30.8994 26.9172 30.3878C27.2014 29.7639 27.4106 29.1012 27.7162 28.4879C27.9475 28.0238 28.1807 27.5612 28.4122 27.0954C28.6044 26.7086 28.8066 26.3238 28.9663 25.9296C29.0872 25.631 29.2143 25.3249 29.3267 25.0226C29.354 24.9493 29.4806 24.5492 29.5327 24.7169" stroke="white" stroke-width="0.16188" stroke-linecap="round"/>
<path id="Vector 91" d="M23.3497 41.0922C23.4284 41.3459 23.3102 41.2941 23.3998 41.0982C23.5132 40.8502 23.516 40.5648 23.5884 40.3037C23.8263 39.4454 24.2276 38.6468 24.5023 37.796C24.6566 37.3179 24.9206 36.8792 25.0862 36.406C25.1887 36.113 25.3692 35.8731 25.4542 35.5665C25.549 35.2246 25.6705 34.9095 25.7848 34.5721C26.084 33.6898 26.5501 32.8564 26.9223 32.0058C27.1034 31.5918 27.3745 31.2238 27.5414 30.7983C27.6531 30.5135 27.7498 30.2203 27.8644 29.9352C28.1613 29.1966 28.4429 28.399 28.8809 27.7234C29.086 27.4069 29.1923 27.0148 29.3683 26.6803C29.4443 26.5359 29.6571 25.9317 29.8139 25.935" stroke="white" stroke-width="0.16188" stroke-linecap="round"/>
<path id="Vector 92" d="M24.8826 39.0208C24.8349 39.0425 24.834 39.1832 24.8051 39.2383C24.7475 39.3477 24.8102 38.9091 24.8309 38.8542C25.0784 38.1968 25.3837 37.5757 25.6057 36.9108C25.7745 36.4051 25.9881 35.9123 26.1812 35.416C26.405 34.8406 26.5913 34.2351 26.8495 33.6748C26.9873 33.3759 27.1777 33.0635 27.2624 32.7463C27.381 32.3022 27.6685 31.9738 27.8606 31.5667C28.1314 30.993 28.3178 30.3902 28.6149 29.8257C28.8923 29.2987 29.1942 28.7873 29.4702 28.2629C29.5506 28.1102 29.5896 27.9321 29.6597 27.7743C29.6924 27.7006 29.7473 27.4336 29.7942 27.5848" stroke="white" stroke-width="0.16188" stroke-linecap="round"/>
<path id="Vector 93" d="M25.4745 39.3692C25.4884 39.4467 25.512 39.1342 25.5582 39.0155C25.6953 38.6631 25.8224 38.3175 25.9847 37.9752C26.2785 37.3556 26.4895 36.6991 26.7056 36.0485C26.9102 35.4324 27.1319 34.8179 27.4063 34.2301C27.6791 33.6459 28.0007 33.0678 28.2406 32.4697C28.5681 31.6529 29.0364 30.8343 29.2531 29.977C29.3207 29.7095 30.1844 27.7901 30.2569 27.8282" stroke="white" stroke-width="0.16188" stroke-linecap="round"/>
<path id="Vector 94" d="M26.1234 39.7479C26.006 39.6122 26.4891 38.8864 26.5631 38.7412C26.808 38.2604 27.0036 37.7437 27.1931 37.2402C27.4024 36.6845 27.4332 36.0147 27.7018 35.4868C27.952 34.9953 28.0788 34.4511 28.339 33.9568C28.626 33.4113 28.7555 32.7691 29.0854 32.2424C29.3949 31.7484 29.6225 31.2199 29.8353 30.6774C30.0562 30.1143 30.249 29.5419 30.4565 28.975C30.5447 28.7342 30.6486 28.4993 30.7392 28.2587C30.7788 28.1536 30.8143 27.8792 30.8815 27.9728" stroke="white" stroke-width="0.16188" stroke-linecap="round"/>
<path id="Vector 95" d="M26.9555 39.7798C26.8785 39.7815 27.3828 39.0072 27.4392 38.9152C27.907 38.1517 28.1892 37.2004 28.4677 36.3611C28.712 35.6247 28.9922 34.9166 29.1884 34.1659C29.2865 33.7908 29.5166 33.426 29.7026 33.0877C30.0958 32.3724 30.3211 31.5553 30.5653 30.7785C30.6685 30.4503 30.8712 30.1593 30.9715 29.8197C31.0234 29.6439 31.0684 29.3532 31.1539 29.6288" stroke="white" stroke-width="0.16188" stroke-linecap="round"/>
<path id="Vector 96" d="M27.8224 40.2361C27.6535 40.511 28.0741 39.6409 28.1706 39.333C28.3781 38.6707 28.6844 38.0429 28.9218 37.3915C29.0678 36.9908 29.1285 36.5491 29.2578 36.1376C29.3947 35.7022 29.5698 35.2486 29.7484 34.8276C30.0477 34.1223 30.4325 33.4352 30.6608 32.7045C30.7959 32.2721 31.0598 31.8599 31.1541 31.4205C31.1998 31.2077 31.1973 31.0146 31.294 31.3261" stroke="white" stroke-width="0.16188" stroke-linecap="round"/>
<path id="Vector 97" d="M28.6376 40.3697C28.5743 40.1656 28.722 39.9779 28.7975 39.7856C28.9917 39.2904 29.1906 38.8069 29.3751 38.3063C29.6768 37.4879 29.9077 36.6449 30.2017 35.8203C30.3426 35.4252 30.5313 35.0479 30.6538 34.6458C30.7585 34.3022 30.9645 33.9766 31.0417 33.6283C31.113 33.3068 31.2684 32.9285 31.3953 32.6214C31.4467 32.4972 31.5718 31.7533 31.6728 32.0786" stroke="white" stroke-width="0.16188" stroke-linecap="round"/>
<path id="Vector 98" d="M29.1472 40.4533C29.098 40.4686 29.1764 40.3944 29.1952 40.3659C29.273 40.2482 29.3202 40.1212 29.3935 40.0008C29.51 39.8095 29.5588 39.6105 29.6469 39.4064C29.7606 39.1432 29.9159 38.9 30.0305 38.6347C30.3456 37.905 30.5626 37.1163 30.7467 36.3468C30.8539 35.8989 31.0386 35.4821 31.0988 35.0234C31.1525 34.6142 31.3949 34.2484 31.498 33.8519C31.5883 33.505 31.721 33.1823 31.8411 32.8456C31.8843 32.7245 32.03 32.2365 32.1352 32.3219" stroke="white" stroke-width="0.16188" stroke-linecap="round"/>
<path id="Vector 99" d="M30.0061 40.5737C29.9642 40.5867 30.0316 40.5055 30.0474 40.4642C30.1076 40.3065 30.1985 40.1572 30.2631 39.9997C30.4322 39.5878 30.5871 39.1711 30.7659 38.7638C31.0565 38.102 31.4215 37.421 31.5585 36.7047C31.6985 35.9731 32.0533 35.3606 32.2536 34.6517C32.3734 34.2277 32.4758 33.8046 32.5804 33.3765C32.6135 33.241 32.7826 32.5201 32.8451 32.5852" stroke="white" stroke-width="0.16188" stroke-linecap="round"/>
<path id="Vector 100" d="M30.6723 40.8502C30.5855 40.5706 30.7602 40.3103 30.8608 40.0557C30.981 39.7516 31.0973 39.4243 31.2571 39.143C31.5276 38.6669 31.7403 38.0216 31.8523 37.4863C31.9629 36.9574 32.2819 36.4837 32.4436 35.9732C32.5481 35.6434 32.6034 35.2962 32.7177 34.9695C32.7673 34.8276 32.8677 34.2152 32.9791 34.5741" stroke="white" stroke-width="0.16188" stroke-linecap="round"/>
<path id="Vector 101" d="M31.5726 41.1026C31.4173 41.0147 31.3231 40.9726 31.3779 40.7869C31.4763 40.4537 31.6258 40.1335 31.7392 39.8045C31.9532 39.1833 32.2881 38.5618 32.4098 37.9149C32.5131 37.3659 32.8427 36.8317 33.0211 36.3016C33.0901 36.0963 33.0837 35.8739 33.1753 35.6735C33.2061 35.6061 33.1624 35.3551 33.2665 35.5001" stroke="white" stroke-width="0.16188" stroke-linecap="round"/>
<path id="Vector 102" d="M31.9996 40.9217C32.1199 40.8692 32.1533 40.6343 32.1904 40.524C32.2808 40.2552 32.4072 39.9713 32.527 39.7131C32.7115 39.3154 33.0864 38.8868 33.0602 38.4195C33.0516 38.2666 33.1662 37.9919 33.2206 37.8459C33.3129 37.5985 33.2965 37.3378 33.3712 37.0847C33.4346 36.8698 33.5301 36.6975 33.5673 36.4705C33.582 36.3813 33.675 36.0386 33.6783 36.0493" stroke="white" stroke-width="0.16188" stroke-linecap="round"/>
<path id="Vector 103" d="M32.7372 41.2729C32.6684 41.051 32.8052 40.8627 32.8961 40.6596C33.0577 40.2982 33.2446 39.939 33.3136 39.5469C33.3886 39.12 33.476 38.688 33.582 38.2656C33.6953 37.8139 33.9142 37.3881 34.051 36.9381C34.0821 36.8358 34.1074 36.2961 34.2533 36.4993" stroke="white" stroke-width="0.16188" stroke-linecap="round"/>
<path id="Vector 104" d="M33.6062 40.955C33.2721 40.7532 33.8517 40.026 33.9255 39.8029C34.1153 39.2289 34.2164 38.6036 34.4988 38.0671" stroke="white" stroke-width="0.16188" stroke-linecap="round"/>
<path id="Vector 105" d="M34.0772 40.7604C33.6267 41.3831 34.677 39.307 34.693 38.5386" stroke="white" stroke-width="0.16188" stroke-linecap="round"/>
</g>
</g>
</svg>
