<svg width="773" height="221" viewBox="0 0 773 221" fill="none" xmlns="http://www.w3.org/2000/svg">
<path d="M814.002 -0.000244141H0.00195312V221H814.002V-0.000244141Z" fill="white"/>
<g opacity="0.4">
<path d="M829.772 4.75098H-15.7705V5.54078H829.772V4.75098Z" fill="#D8E9EF"/>
<path d="M829.772 12.6484H-15.7705V13.4382H829.772V12.6484Z" fill="#D8E9EF"/>
<path d="M829.772 20.5461H-15.7705V21.3359H829.772V20.5461Z" fill="#D8E9EF"/>
<path d="M829.772 28.4436H-15.7705V29.2334H829.772V28.4436Z" fill="#D8E9EF"/>
<path d="M829.772 36.3411H-15.7705V37.1309H829.772V36.3411Z" fill="#D8E9EF"/>
<path d="M829.772 44.2388H-15.7705V45.0286H829.772V44.2388Z" fill="#D8E9EF"/>
<path d="M829.772 52.136H-15.7705V52.9258H829.772V52.136Z" fill="#D8E9EF"/>
<path d="M829.772 60.0334H-15.7705V60.8232H829.772V60.0334Z" fill="#D8E9EF"/>
<path d="M829.772 67.9312H-15.7705V68.721H829.772V67.9312Z" fill="#D8E9EF"/>
<path d="M829.772 75.8286H-15.7705V76.6184H829.772V75.8286Z" fill="#D8E9EF"/>
<path d="M829.772 84.1211H-15.7705V84.9109H829.772V84.1211Z" fill="#D8E9EF"/>
<path d="M829.772 92.0186H-15.7705V92.8084H829.772V92.0186Z" fill="#D8E9EF"/>
<path d="M829.772 99.9163H-15.7705V100.706H829.772V99.9163Z" fill="#D8E9EF"/>
<path d="M829.772 107.814H-15.7705V108.604H829.772V107.814Z" fill="#D8E9EF"/>
<path d="M829.772 115.711H-15.7705V116.501H829.772V115.711Z" fill="#D8E9EF"/>
<path d="M829.772 123.609H-15.7705V124.399H829.772V123.609Z" fill="#D8E9EF"/>
<path d="M829.772 131.506H-15.7705V132.296H829.772V131.506Z" fill="#D8E9EF"/>
<path d="M829.772 139.404H-15.7705V140.193H829.772V139.404Z" fill="#D8E9EF"/>
<path d="M829.772 147.301H-15.7705V148.091H829.772V147.301Z" fill="#D8E9EF"/>
<path d="M829.772 155.199H-15.7705V155.989H829.772V155.199Z" fill="#D8E9EF"/>
<path d="M829.772 163.491H-15.7705V164.281H829.772V163.491Z" fill="#D8E9EF"/>
<path d="M829.772 171.389H-15.7705V172.179H829.772V171.389Z" fill="#D8E9EF"/>
<path d="M829.772 179.286H-15.7705V180.076H829.772V179.286Z" fill="#D8E9EF"/>
<path d="M829.772 187.184H-15.7705V187.974H829.772V187.184Z" fill="#D8E9EF"/>
<path d="M829.772 195.081H-15.7705V195.871H829.772V195.081Z" fill="#D8E9EF"/>
<path d="M829.772 202.979H-15.7705V203.769H829.772V202.979Z" fill="#D8E9EF"/>
<path d="M829.772 210.876H-15.7705V211.666H829.772V210.876Z" fill="#D8E9EF"/>
<path d="M829.772 218.774H-15.7705V219.564H829.772V218.774Z" fill="#D8E9EF"/>
<path d="M780.934 -4.28198H772.794V223.254H780.934V-4.28198Z" fill="#FF717C"/>
</g>
<path opacity="0.24" d="M829.542 -5H-16V225.116H829.542V-5Z" fill="url(#paint0_linear_999_20095)"/>
<defs>
<linearGradient id="paint0_linear_999_20095" x1="-16.5088" y1="-4.86187" x2="99.726" y2="423.261" gradientUnits="userSpaceOnUse">
<stop stop-color="white"/>
<stop offset="1" stop-color="#5E5E5E"/>
</linearGradient>
</defs>
</svg>
